name analog
datacolumns 19
datarows 33
range 0.2095 0.2255
endheader
time	ground_force_vx	ground_force_vy	ground_force_vz	ground_force_px	ground_force_py	ground_force_pz	l_ground_force_vx	l_ground_force_vy	l_ground_force_vz	l_ground_force_px	l_ground_force_py	l_ground_force_pz	ground_torque_x	ground_torque_y	ground_torque_z	l_ground_torque_x	l_ground_torque_y	l_ground_torque_z
0.2095	-0.0	-0.0	-0.0	-0.4859755635261535	57.39997863769531	-371.5101623535156	8.228381156921387	-57.8507080078125	-387.9587707519531	-0.0	-0.0	-0.0	-0.0	-0.0	-0.0	110082.8203125	-31781.67578125	400.6437072753906
0.21	-0.0	-0.0	-0.0	-0.2097272872924804	56.88753890991211	-368.0134887695313	7.9171624183654785	-58.31412124633789	-392.0972900390625	-0.0	-0.0	-0.0	-0.0	-0.0	-0.0	110692.421875	-31928.47265625	373.5217895507813
0.2105	-0.0	-0.0	-0.0	0.2541079223155975	56.08554458618164	-367.27142333984375	8.574034690856934	-58.46456146240234	-391.6785888671875	-0.0	-0.0	-0.0	-0.0	-0.0	-0.0	110657.25	-32401.3671875	173.66200256347656
0.211	-0.0	-0.0	-0.0	1.5603461265563965	55.54640579223633	-364.55364990234375	8.596041679382324	-58.70289611816406	-391.0848388671875	-0.0	-0.0	-0.0	-0.0	-0.0	-0.0	110854.796875	-32164.619140625	170.6759490966797
0.2115	-0.0	-0.0	-0.0	2.470409870147705	55.096317291259766	-361.1312255859375	8.698144912719727	-57.952430725097656	-390.7713317871094	-0.0	-0.0	-0.0	-0.0	-0.0	-0.0	110308.2109375	-32103.736328125	228.7785186767578
0.212	-0.0	-0.0	-0.0	3.1223678588867188	54.627716064453125	-362.100830078125	9.225921630859377	-57.75787734985352	-388.9905090332031	-0.0	-0.0	-0.0	-0.0	-0.0	-0.0	110084.7578125	-31694.423828125	204.07730102539065
0.2125	-0.0	-0.0	-0.0	3.3806939125061035	54.01302337646485	-359.16558837890625	9.314632415771484	-57.90724563598633	-386.9856262207031	-0.0	-0.0	-0.0	-0.0	-0.0	-0.0	109643.015625	-31785.587890625	312.1213684082031
0.213	-0.0	-0.0	-0.0	3.479209899902344	54.01770782470703	-361.2288513183594	9.860685348510742	-57.32992935180664	-386.5289611816406	-0.0	-0.0	-0.0	-0.0	-0.0	-0.0	109458.2890625	-31697.310546875	234.37417602539065
0.2135	-0.0	-0.0	-0.0	3.1459903717041016	53.675384521484375	-358.1057434082031	9.842266082763672	-57.99046325683594	-386.8964538574219	-0.0	-0.0	-0.0	-0.0	-0.0	-0.0	109314.1875	-31303.158203125	229.5825653076172
0.214	-0.0	-0.0	-0.0	3.2353830337524414	53.38911437988281	-357.8089904785156	9.74885082244873	-58.0831413269043	-387.31939697265625	-0.0	-0.0	-0.0	-0.0	-0.0	-0.0	109441.2734375	-31525.671875	26.52665138244629
0.2145	-0.0	-0.0	-0.0	3.54443359375	53.33353042602539	-357.9042358398437	9.468535423278809	-58.63154983520508	-389.359619140625	-0.0	-0.0	-0.0	-0.0	-0.0	-0.0	110133.1953125	-31595.6953125	-231.3146209716797
0.215	-0.0	-0.0	-0.0	3.0331573486328125	52.95311737060547	-359.32672119140625	8.590728759765625	-58.73864364624024	-391.6175537109375	-0.0	-0.0	-0.0	-0.0	-0.0	-0.0	110342.2734375	-31986.40625	-333.5296325683594
0.2155	-0.0	-0.0	-0.0	2.69092321395874	52.85919570922852	-358.4969482421875	7.900035381317139	-59.18503952026367	-392.0972900390625	-0.0	-0.0	-0.0	-0.0	-0.0	-0.0	110968.5625	-31642.20703125	-593.1143798828125
0.216	-0.0	-0.0	-0.0	2.492988586425781	53.72113037109375	-360.480224609375	7.890448093414307	-59.18989944458008	-394.2490234375	-0.0	-0.0	-0.0	-0.0	-0.0	-0.0	111619.84375	-32098.171875	-719.7505493164062
0.2165	-0.0	-0.0	-0.0	1.595906376838684	53.502925872802734	-362.3430480957031	7.535569667816162	-59.55294418334961	-397.9756164550781	-0.0	-0.0	-0.0	-0.0	-0.0	-0.0	112295.5	-32278.6484375	-975.7141723632812
0.217	-0.0	-0.0	-0.0	0.3817310333251953	53.57732009887695	-362.0291748046875	7.156274318695068	-59.80350875854492	-400.08929443359375	-0.0	-0.0	-0.0	-0.0	-0.0	-0.0	113040.59375	-32366.771484375	-1196.6622314453125
0.2175	-0.0	-0.0	-0.0	-0.0100284814834594	53.58240509033203	-364.2476501464844	6.91452169418335	-59.61714172363281	-403.1539611816406	-0.0	-0.0	-0.0	-0.0	-0.0	-0.0	113553.2265625	-32382.564453125	-1315.4427490234375
0.218	-0.0	-0.0	-0.0	-0.2474288344383239	53.824668884277344	-363.8952941894531	6.39213228225708	-58.92043685913086	-402.92095947265625	-0.0	-0.0	-0.0	-0.0	-0.0	-0.0	113727.25	-32627.953125	-1458.986328125
0.2185	-0.0	-0.0	-0.0	-0.2320276498794555	53.636173248291016	-366.22747802734375	6.569589138031006	-59.17055892944336	-403.25048828125	-0.0	-0.0	-0.0	-0.0	-0.0	-0.0	113814.75	-32476.154296875	-1610.546142578125
0.219	-0.0	-0.0	-0.0	0.5937373042106628	52.78567123413086	-364.3802795410156	6.131098747253418	-59.17552947998047	-401.893310546875	-0.0	-0.0	-0.0	-0.0	-0.0	-0.0	113736.8671875	-32368.03125	-1726.1412353515625
0.2195	-0.0	-0.0	-0.0	0.9813156127929688	52.73427200317383	-364.7940368652344	6.146361827850342	-58.135833740234375	-401.3649291992188	-0.0	-0.0	-0.0	-0.0	-0.0	-0.0	113169.6875	-32250.98046875	-1708.0181884765625
0.22	-0.0	-0.0	-0.0	1.4013944864273071	52.40867614746094	-363.0689697265625	6.893946647644043	-58.01719665527344	-399.429443359375	-0.0	-0.0	-0.0	-0.0	-0.0	-0.0	112971.390625	-32200.103515625	-1878.6678466796875
0.2205	-0.0	-0.0	-0.0	1.5900956392288208	51.533050537109375	-361.03271484375	7.01328706741333	-57.414207458496094	-397.9924011230469	-0.0	-0.0	-0.0	-0.0	-0.0	-0.0	112712.390625	-31738.521484375	-1838.462890625
0.221	-0.0	-0.0	-0.0	2.041306495666504	50.90398788452149	-358.89337158203125	7.0133233070373535	-57.15958023071289	-395.9989929199219	-0.0	-0.0	-0.0	-0.0	-0.0	-0.0	111795.71875	-31584.849609375	-1881.8236083984373
0.2215	-0.0	-0.0	-0.0	2.3353819847106934	50.20161437988281	-359.806396484375	7.195986747741699	-57.17005157470703	-394.1921997070313	-0.0	-0.0	-0.0	-0.0	-0.0	-0.0	111736.859375	-31513.76171875	-1878.23779296875
0.222	-0.0	-0.0	-0.0	2.59778356552124	49.66697692871094	-356.6905822753906	7.284770011901855	-57.07668685913086	-394.21282958984375	-0.0	-0.0	-0.0	-0.0	-0.0	-0.0	111953.0546875	-31252.212890625	-2077.03369140625
0.2225	-0.0	-0.0	-0.0	3.557668924331665	49.478118896484375	-356.00537109375	7.185573577880859	-57.403839111328125	-394.5205383300781	-0.0	-0.0	-0.0	-0.0	-0.0	-0.0	111358.2265625	-31592.7578125	-2077.126708984375
0.223	-0.0	-0.0	-0.0	3.41164493560791	49.79686737060547	-353.90771484375	6.413748264312744	-57.73063659667969	-393.493896484375	-0.0	-0.0	-0.0	-0.0	-0.0	-0.0	111344.140625	-31406.35546875	-2203.4638671875
0.2235	-0.0	-0.0	-0.0	3.584763765335083	49.27278518676758	-355.2127380371094	6.626555919647217	-57.144134521484375	-392.71136474609375	-0.0	-0.0	-0.0	-0.0	-0.0	-0.0	111447.1640625	-31234.185546875	-2266.057861328125
0.224	-0.0	-0.0	-0.0	3.8923568725585938	49.28363800048828	-354.52752685546875	6.220528602600098	-57.39836883544922	-392.7743835449219	-0.0	-0.0	-0.0	-0.0	-0.0	-0.0	111057.171875	-30914.62890625	-2197.24560546875
0.2245	-0.0	-0.0	-0.0	3.11684799194336	49.199981689453125	-354.152099609375	5.9382004737854	-56.97828674316406	-393.7576599121094	-0.0	-0.0	-0.0	-0.0	-0.0	-0.0	111236.7109375	-30776.830078125	-2676.386474609375
0.225	-0.0	-0.0	-0.0	2.6818716526031494	49.65673828125	-357.06494140625	5.521902561187744	-56.89003372192383	-393.757080078125	-0.0	-0.0	-0.0	-0.0	-0.0	-0.0	111335.4375	-31055.0859375	-2771.103759765625
0.2255	-0.0	-0.0	-0.0	2.1186814308166504	50.02450942993164	-357.4180908203125	5.022750854492188	-56.71893310546875	-393.1230773925781	-0.0	-0.0	-0.0	-0.0	-0.0	-0.0	111428.1484375	-31148.15234375	-2858.582275390625
